<svg xmlns="http://www.w3.org/2000/svg" width="32" height="32" viewBox="0 0 512 512"><g fill="currentColor"><path d="M100.5 42.5c-2.9 1.1-9.1 6.6-24.2 21.8C59.1 81.5 56 85.1 56 87.5c0 2.6 10.1 13.1 78.3 81.3 44.9 45 79.2 78.5 80.6 78.9 1.3.3 10.6-.6 20.5-2l18.1-2.5 43 42.9 43 42.9H195.4c-97.8 0-145.9.3-150 1.1-21.2 3.8-40.5 23.1-44.3 44.3-1.4 7.7-1.4 37.5 0 45.2 3.8 21.2 23.1 40.5 44.3 44.3 4.1.8 65.3 1.1 195.5 1.1 165.4 0 190.4-.2 196-1.5 9.5-2.3 19.7-8 26.7-15.2l6.1-6.1 13.9 14c7.6 7.6 15.2 14.6 16.8 15.5 5.2 2.7 11.6-1 11.6-6.9 0-2.8-2.2-5.4-17.3-20.7l-17.4-17.6 1.3-5c1.8-7.5 1.8-41.4-.1-49.4-4.8-20.3-22.2-37.4-42.2-41.6-3.8-.8-11.8-1.5-17.8-1.5h-11L266 187.4C151.4 72.7 123.5 45.3 119.5 43.4c-5.8-2.7-12.8-3.1-19-.9zm147.7 150.2L384 328.5l-10.7.3-10.7.3-51.1-51.1c-50.3-50.3-51.1-51-55-51-2.2 0-11.4 1.1-20.5 2.5l-16.5 2.4-71.7-71.7C108.3 120.8 76 88 76 87.5c0-.6 6.7-7.7 14.8-15.8C104.1 58.5 106 57 109.1 57c3.2 0 11.8 8.4 139.1 135.7zm191.9 155.9c11.4 5.4 19 14.1 22.3 25.3 5.8 19.7-5.2 41.5-24.7 48.7-5.1 1.9-9.5 1.9-198.2 1.9h-193l-6.5-3.1c-9.5-4.6-15.3-10.1-19.7-19.2-3.6-7.2-3.8-8.1-3.8-17.1 0-8.7.3-10.2 3.2-16.3 1.7-3.7 5-8.7 7.2-11.1 4.4-4.8 13.5-10.1 19.7-11.6 2.3-.5 82.1-.8 195.4-.8l191.5.2 6.6 3.1zM27.7 433c2.6 1.6 7.5 4 10.8 5.2l6 2.3 191.5.3c137.4.2 193.4-.1 198.2-.9 4.1-.6 10-2.7 15.2-5.3 8.3-4.2 8.5-4.2 6.6-1.6-3.3 4.7-9.1 9.2-16 12.4l-6.5 3.1h-387l-5.8-2.7c-7-3.3-12.4-7.4-16.1-12.3-1.5-1.9-2.5-3.5-2.2-3.5.2 0 2.6 1.3 5.3 3z"/><path d="M418.9 379.9c-1.6 1.6-2.9 3.9-2.9 5.1 0 2.9 5.3 8 8.3 8 1.3 0 3.6-.9 5.1-2.1 3.7-2.9 3.7-8.9 0-11.8-3.7-2.9-7-2.6-10.5.8z"/></g></svg>