<svg xmlns="http://www.w3.org/2000/svg" width="32" height="32" viewBox="0 0 512 512"><path d="M243.1 38.7c-17.6 18.5-31.8 38-42.7 58.8-3.1 6-5.9 11.2-6 11.4-.2.1-5.7-3.8-12.3-8.7-18.9-14.3-40.8-26.3-63.1-34.6-11.5-4.3-14.2-4.5-16.9-1-5.2 6.6-16.2 48.1-17.8 66.9-.3 4.1-.9 7.8-1.2 8.3-.4.7-4.1.2-10.1-1.3-15.5-3.7-31.4-5.7-50.3-6.2-17.7-.6-17.8-.6-20.4 1.8l-2.6 2.4.6 18c1.1 33 6.9 59.5 19.4 89.5 10.3 24.6 27.6 51.6 44.6 69.7l4.8 5.1-10.8 5.5c-19.3 9.7-32.5 19-48 34.1C2.8 365.6 0 369 0 370.7c0 4.8 20.9 24.2 38.6 35.8 35 23.1 80.5 34.9 121 31.6 14.8-1.3 30.1-3.9 40.3-7.1 3.6-1.1 6.6-1.8 6.6-1.7 14.2 22.9 34.9 48.3 42.7 52.3 3.5 1.8 10.1 1.8 13.6 0 3.6-1.9 16-14.9 24.3-25.6 4.9-6.3 16.6-23.3 18.3-26.7.1-.1 3.7.9 8.2 2.2 19.7 5.7 46.3 8.3 66.9 6.5 48.8-4.2 92.8-24.6 124.8-57.8 4.5-4.7 6.7-7.8 6.7-9.4 0-3-16.3-19.3-28-28-9.7-7.3-24.6-16.3-33.8-20.5l-7.3-3.3 6.9-7.8c39.5-44.2 62.1-103.6 62.2-163.3 0-11-.1-11.7-2.5-13.9-2.4-2.2-2.7-2.3-20.2-1.7-18.9.5-34.8 2.5-50.3 6.2-6.1 1.5-9.7 2-10.1 1.3-.3-.5-.9-4.4-1.3-8.6-1.5-18.3-12.6-60.2-17.7-66.6-2.9-3.7-5.6-3.4-20.1 2.3-23.1 9.1-41.4 19.3-60.6 33.8-6.2 4.7-11.4 8.4-11.6 8.2-.1-.2-2.9-5.4-6-11.4-11.1-21.1-25.1-40.4-42.7-58.8-8.4-8.7-9.8-9.7-12.9-9.7-3.1 0-4.5 1-12.9 9.7zM264.9 55c57.9 64.5 75.7 152.2 47.6 234.1-4.8 13.8-16.8 38-25 50.4-7.8 11.6-19.2 25.9-26.4 33l-5.1 4.9-4.1-3.9c-19.1-18.3-40.5-52.3-51.3-81.8-28.2-76.1-13.6-163.6 37.7-226.6C246 55.7 255 46 256 46c.5 0 4.5 4 8.9 9zM123.6 82.5c21.6 9.1 45.1 23.5 61 37.4l3.7 3.3-3.6 11.6c-6 19.5-10.7 41.3-10.7 49.8 0 1.9-.2 3.4-.5 3.4s-4.9-3.3-10.4-7.4c-16.8-12.5-40.3-25.5-58.1-32.1-4.1-1.5-7.6-2.9-7.8-3-.7-.6 2.1-21.8 4.3-33 2.7-13.3 9.1-34.5 10.4-34.5.5 0 5.8 2 11.7 4.5zm280.9 6.7c4.2 13.4 8 31.3 9.5 45.7.6 5.7 1 10.4.8 10.5-.2.2-4.1 1.7-8.8 3.6-19.4 7.5-40.8 19.4-57.1 31.7-5.4 4-9.9 7.3-10.2 7.3-.2 0-.7-3.2-1.1-7-.9-10-5.2-29.5-9.2-42.5-5.1-16.2-5.1-15-1.3-18.3 10.1-8.8 23.3-18 37.5-26.1 9-5.1 32.7-16 35.1-16.1.7 0 2.8 4.9 4.8 11.2zM42.4 147.5c44.5 5.2 87.2 23.3 121.5 51.5l7.9 6.5.6 13.5c.9 17.4 2.1 27.7 5.1 42.5 8.2 40.9 27.3 79.6 55.3 112 3.3 3.8 6 7 5.9 7.1-.1 0-4.9-.3-10.6-.7-53.3-4.2-105.9-28.3-144.4-66.2-41.7-41.1-66.2-95.8-69.3-155l-.7-12.7h7.9c4.4 0 13.7.7 20.8 1.5zm455.2 11.2c-6.2 117.4-97.2 211.6-213.6 221.1-5.8.5-10.6.8-10.7.8 0-.1 3.7-4.6 8.4-10.1 20.7-24.4 37.6-55.6 47.3-87.1 5.8-18.8 9.4-40.5 10.6-64.1l.6-13.2 4.3-4c22.2-20.5 59.7-40.1 92.7-48.5 19.3-4.9 34.5-7.1 51.7-7.4l9.4-.2-.7 12.7zM88.4 336.8c41 34.6 90.4 54 146.5 57.7l10.4.7-4.9 3.1c-8.3 5.2-26.4 13.4-37.4 17.1-36.6 12.2-76.4 12.2-113.8.1-14-4.6-36.4-15.8-47.7-24-9.7-6.9-24.5-19.6-24.2-20.7.5-1.8 17.4-15.8 26.7-22 9-6.1 32.7-18.7 35.4-18.8.5 0 4.5 3.1 9 6.8zm357.1-.9c14.2 6.9 29.9 17.3 41 27 4.4 3.9 8.1 7.5 8.2 7.9.2 1.1-14.3 13.6-24.2 20.7-11.2 8.1-33.6 19.4-47.5 23.9-36.9 12.2-76.6 12.2-113.8 0-11.1-3.6-29.1-11.8-37.6-17.1l-4.9-3.1 10.4-.7c42.9-2.8 80.8-14.4 115.3-35.3 11.9-7.3 26.3-17.7 34.6-25.1 2.5-2.2 5-4 5.5-4.1.6 0 6.4 2.6 13 5.9zm-185 71.8c2.2 1.5 10.2 6 17.8 9.8l13.7 7.1-4 6.3c-9.5 14.6-29.2 38.1-32.1 38.1-2.8 0-22.5-23.6-31.9-38.1l-4.1-6.3 11.5-5.8c6.4-3.1 14.4-7.5 17.8-9.7 3.5-2.2 6.5-4.1 6.8-4.1.3 0 2.3 1.2 4.5 2.7z" fill="currentColor"/></svg>